<svg width="55" height="55" viewBox="0 0 55 55" fill="none" xmlns="http://www.w3.org/2000/svg">
<rect x="0.366667" y="0.366667" width="54.2667" height="54.2667" rx="27.1333" fill="white"/>
<rect x="0.366667" y="0.366667" width="54.2667" height="54.2667" rx="27.1333" stroke="#C4C3C3" stroke-width="0.733333"/>
<g clip-path="url(#clip0_68_151)">
<path d="M32.9902 17.9824C32.4308 17.9824 31.8923 18.0874 31.3748 18.2973C30.8574 18.5072 30.3784 18.7871 29.9378 19.1369C29.4973 19.4868 29.1022 19.8856 28.7525 20.3334C28.4029 20.7952 28.1162 21.2639 27.8924 21.7397C27.6687 21.2639 27.382 20.7952 27.0323 20.3334C26.6827 19.8856 26.2876 19.4868 25.847 19.1369C25.4065 18.7871 24.9275 18.5072 24.41 18.2973C23.8925 18.0874 23.3541 17.9824 22.7947 17.9824C22.0115 17.9824 21.2772 18.1294 20.5919 18.4232C19.9066 18.7171 19.3088 19.1194 18.7983 19.6302C18.2878 20.141 17.8857 20.7392 17.592 21.4249C17.2983 22.1106 17.1515 22.8452 17.1515 23.6289C17.1515 25.2102 17.5081 26.5465 18.2214 27.6381C18.9346 28.7436 19.8262 29.7931 20.8961 30.7866C21.966 31.7802 23.1233 32.8227 24.3681 33.9142C25.6268 34.9917 26.8015 36.3141 27.8924 37.8814C28.9274 36.3281 30.0672 34.9987 31.3119 33.8932C32.5566 32.7877 33.7209 31.7312 34.8048 30.7237C35.8887 29.7161 36.8013 28.6666 37.5425 27.5751C38.2698 26.4696 38.6334 25.1542 38.6334 23.6289C38.6334 22.8452 38.4865 22.1106 38.1928 21.4249C37.8991 20.7392 37.497 20.141 36.9866 19.6302C36.4761 19.1194 35.8782 18.7171 35.1929 18.4232C34.5076 18.1294 33.7734 17.9824 32.9902 17.9824Z" fill="#C4C3C3"/>
</g>
<defs>
<clipPath id="clip0_68_151">
<rect width="22" height="21.4943" fill="white" transform="matrix(1 0 0 -1 16.8923 38.1333)"/>
</clipPath>
</defs>
</svg>
